<?xml version="1.0" encoding="UTF-8" standalone="no"?>
<svg xmlns="http://www.w3.org/2000/svg" width="80" height="25" viewBox="0 0 80 25" fill="none">
    <style>
@keyframes lorem-a0_f { 0% { fill: #FF193C; } 33.3333% { fill: #FF193C; } 38.3333% { fill: #ff8fa0; } 43.3333% { fill: #FF193C; } 100% { fill: #FF193C; } }
@keyframes lorem-a1_fo { 0% { fill-opacity: 0; } 35% { fill-opacity: 0; } 39% { fill-opacity: 0.5; } 41% { fill-opacity: 0; } 100% { fill-opacity: 0; } }
@keyframes lorem-a2_f { 0% { fill: #F2F2F2; } 39.3333% { fill: #F2F2F2; } 44.3333% { fill: #fffe86; } 49.3333% { fill: #F2F2F2; } 100% { fill: #F2F2F2; } }
@keyframes lorem-a3_fo { 0% { fill-opacity: 0; } 41.6667% { fill-opacity: 0; } 45% { fill-opacity: 0.5; } 46.3333% { fill-opacity: 0; } 100% { fill-opacity: 0; } }
@keyframes lorem-a4_f { 0% { fill: #1F79FF; } 46% { fill: #1F79FF; } 51% { fill: #7eafff; } 56% { fill: #1F79FF; } 100% { fill: #1F79FF; } }
@keyframes lorem-a5_fo { 0% { fill-opacity: 0; } 47.6667% { fill-opacity: 0; } 50.3333% { fill-opacity: 0.5; } 51.6667% { fill-opacity: 0; } 100% { fill-opacity: 0; } }
    </style>
    <path d="M64,23.7408L64,14.5127C64,14.376,64.0488,14.2588,64.1465,14.1611C64.2539,14.0537,64.376,14,64.5127,14L68.6141,14C68.8485,14,69.0633,14.0732,69.2586,14.2197C69.4539,14.3662,69.576,14.5517,69.6248,14.7763L71.3532,21.7487C71.3825,21.8659,71.4411,21.9294,71.529,21.9392C71.6267,21.9392,71.7097,21.9392,71.778,21.9392C71.944,21.9392,72.0417,21.8757,72.071,21.7487L73.7994,14.7763C73.8483,14.5517,73.9703,14.3662,74.1656,14.2197C74.3609,14.0732,74.5709,14,74.7955,14L78.9115,14C79.0483,14,79.1654,14.0537,79.2631,14.1611C79.3705,14.2588,79.4242,14.376,79.4242,14.5127L79.4242,23.7408C79.4242,23.8776,79.3705,23.9996,79.2631,24.107C79.1654,24.2047,79.0483,24.2535,78.9115,24.2535L77.3735,24.2535C77.2368,24.2535,77.1147,24.2047,77.0073,24.107C76.9097,23.9996,76.8608,23.8776,76.8608,23.7408L76.8608,16.5634C76.8608,16.4853,76.8364,16.4267,76.7876,16.3876C76.7485,16.3485,76.7046,16.3241,76.6558,16.3144C76.6069,16.3046,76.563,16.2997,76.5239,16.2997C76.5044,16.2997,76.4751,16.3046,76.4361,16.3144C76.397,16.3144,76.3579,16.3144,76.3189,16.3144C76.1431,16.3144,76.0406,16.3778,76.0113,16.5048L74.2828,23.4772C74.2242,23.7018,74.1022,23.8873,73.9166,24.0338C73.7311,24.1803,73.5211,24.2535,73.2868,24.2535L70.1375,24.2535C69.9031,24.2535,69.6931,24.1803,69.5076,24.0338C69.3221,23.8873,69.2,23.7018,69.1414,23.4772L67.3983,16.5048C67.3788,16.4364,67.3446,16.3876,67.2958,16.3583C67.2567,16.329,67.2177,16.3144,67.1786,16.3144C67.1395,16.3046,67.1102,16.2997,67.0907,16.2997C67.0614,16.2997,67.0272,16.3046,66.9882,16.3144C66.9491,16.3144,66.91,16.3144,66.871,16.3144C66.7831,16.3144,66.7099,16.3388,66.6513,16.3876C66.5927,16.4267,66.5634,16.4853,66.5634,16.5634L66.5634,23.7408C66.5634,23.8776,66.5097,23.9996,66.4023,24.107C66.3046,24.2047,66.1874,24.2535,66.0507,24.2535L64.5127,24.2535C64.376,24.2535,64.2539,24.2047,64.1465,24.107C64.0488,23.9996,64,23.8776,64,23.7408Z" fill="#CECECE" transform="translate(71.7121,19.1267) translate(-71.7121,-19.1267)"/>
    <path d="M49,21.6901L49,16.5634C49,16.2118,49.0635,15.8798,49.1904,15.5673C49.3271,15.2548,49.5127,14.9814,49.747,14.747C49.9814,14.5127,50.2548,14.332,50.5673,14.2051C50.8798,14.0684,51.2118,14,51.5634,14L57.1589,14C57.5104,14,57.8424,14.0684,58.1549,14.2051C58.4674,14.3418,58.736,14.5273,58.9606,14.7617C59.1949,14.9863,59.3805,15.2548,59.5172,15.5673C59.6539,15.8798,59.7223,16.2118,59.7223,16.5634L59.7223,21.6901C59.7223,22.0417,59.6539,22.3737,59.5172,22.6862C59.3805,22.9987,59.1949,23.2721,58.9606,23.5065C58.736,23.7311,58.4674,23.9117,58.1549,24.0485C57.8424,24.1852,57.5104,24.2535,57.1589,24.2535L51.5634,24.2535C51.2118,24.2535,50.8798,24.19,50.5673,24.0631C50.2548,23.9264,49.9814,23.7408,49.747,23.5065C49.5127,23.2721,49.3271,22.9987,49.1904,22.6862C49.0635,22.3737,49,22.0417,49,21.6901ZM51.5634,17.5887L51.5634,20.6648C51.5634,21.0163,51.6854,21.3191,51.9296,21.573C52.1835,21.8171,52.4862,21.9392,52.8377,21.9392L55.8699,21.9392C56.2214,21.9392,56.5241,21.8171,56.778,21.573C57.0319,21.3191,57.1589,21.0163,57.1589,20.6648L57.1589,17.5887C57.1589,17.2372,57.0319,16.9393,56.778,16.6952C56.5241,16.4413,56.2214,16.3144,55.8699,16.3144L52.8377,16.3144C52.4862,16.3144,52.1835,16.4413,51.9296,16.6952C51.6854,16.9393,51.5634,17.2372,51.5634,17.5887Z" fill="#CECECE" transform="translate(54.3612,19.1267) translate(-54.3612,-19.1267)"/>
    <path d="M34,22.2571C34,22.1238,34.0437,22.0048,34.1311,21.9C34.2272,21.7952,34.3364,21.7429,34.4587,21.7429L41.2477,21.7429C41.3962,21.7429,41.5055,21.7,41.5754,21.6143C41.6453,21.519,41.6846,21.419,41.6933,21.3143C41.7108,21.2095,41.7195,21.1143,41.7195,21.0286C41.7195,20.9905,41.7152,20.9286,41.7064,20.8429C41.7064,20.7476,41.7064,20.6619,41.7064,20.5857C41.7064,20.4048,41.6627,20.2571,41.5754,20.1429C41.488,20.0286,41.3788,19.9714,41.2477,19.9714L36.2936,19.9714C35.979,19.9714,35.682,19.9095,35.4024,19.7857C35.1228,19.6524,34.8781,19.4714,34.6684,19.2429C34.4587,19.0143,34.2927,18.7524,34.1704,18.4571C34.0568,18.1524,34,17.8286,34,17.4857L34,16.5C34,16.1571,34.0568,15.8333,34.1704,15.5286C34.2927,15.2238,34.4587,14.9571,34.6684,14.7286C34.8781,14.5,35.1228,14.3238,35.4024,14.2C35.682,14.0667,35.979,14,36.2936,14L43.3054,14C43.4277,14,43.5325,14.0524,43.6199,14.1571C43.716,14.2524,43.7641,14.3667,43.7641,14.5L43.7641,15.7571C43.7641,15.8905,43.716,16.0095,43.6199,16.1143C43.5325,16.2095,43.4277,16.2571,43.3054,16.2571L36.7523,16.2571C36.6212,16.2571,36.5208,16.2905,36.4509,16.3571C36.3897,16.4143,36.346,16.4905,36.3198,16.5857C36.3023,16.6714,36.2936,16.7571,36.2936,16.8429L36.2936,17.0714C36.2936,17.2619,36.3329,17.419,36.4115,17.5429C36.4989,17.6667,36.6125,17.7286,36.7523,17.7286L41.7064,17.7286C42.021,17.7286,42.318,17.7952,42.5976,17.9286C42.8772,18.0619,43.1175,18.2429,43.3185,18.4714C43.5282,18.6905,43.6942,18.9524,43.8165,19.2571C43.9388,19.5619,44,19.8857,44,20.2286L44,21.5C44,21.8429,43.9388,22.1667,43.8165,22.4714C43.6942,22.7762,43.5282,23.0429,43.3185,23.2714C43.1175,23.4905,42.8772,23.6667,42.5976,23.8C42.318,23.9333,42.021,24,41.7064,24L34.4587,24C34.3364,24,34.2272,23.9524,34.1311,23.8571C34.0437,23.7524,34,23.6333,34,23.5L34,22.2571Z" fill="#CECECE" transform="translate(39,19) translate(-39,-19)"/>
    <path d="M19,14.5C19,14.3667,19.0461,14.2524,19.1383,14.1571C19.2397,14.0524,19.355,14,19.4841,14L20.9364,14C21.0655,14,21.1761,14.0524,21.2683,14.1571C21.3698,14.2524,21.4205,14.3667,21.4205,14.5L21.4205,17.2286C21.4205,17.3619,21.4666,17.481,21.5588,17.5857C21.6602,17.681,21.7755,17.7286,21.9046,17.7286L23.4952,17.7286C23.6796,17.7286,23.8179,17.6476,23.9101,17.4857L25.722,14.2571C25.7681,14.181,25.828,14.119,25.9018,14.0714C25.9848,14.0238,26.0678,14,26.1508,14L28.0733,14C28.1655,14,28.2439,14.0333,28.3084,14.1C28.3822,14.1571,28.4191,14.2238,28.4191,14.3C28.4191,14.3952,28.3638,14.5524,28.2531,14.7714C28.1425,14.9905,28.0041,15.2429,27.8382,15.5286C27.6722,15.8048,27.4924,16.1,27.2988,16.4143C27.1143,16.719,26.9391,17.0095,26.7732,17.2857C26.6072,17.5619,26.4689,17.8095,26.3582,18.0286C26.2476,18.2381,26.1923,18.381,26.1923,18.4571C26.1923,18.5429,26.2614,18.7238,26.3997,19C26.538,19.2667,26.7086,19.581,26.9115,19.9429C27.1236,20.2952,27.3495,20.6714,27.5892,21.0714C27.8382,21.4714,28.0641,21.8524,28.2669,22.2143C28.479,22.5762,28.6542,22.8905,28.7925,23.1571C28.9308,23.4238,29,23.6048,29,23.7C29,23.7762,28.9631,23.8476,28.8893,23.9143C28.8156,23.9714,28.7372,24,28.6542,24L26.5657,24C26.3813,24,26.243,23.9143,26.1508,23.7429L24.325,20.2286C24.2789,20.1524,24.2144,20.0905,24.1314,20.0429C24.0576,19.9952,23.9839,19.9714,23.9101,19.9714L21.9046,19.9714C21.7663,19.9714,21.651,20.0238,21.5588,20.1286C21.4666,20.2238,21.4205,20.3429,21.4205,20.4857L21.4205,23.5C21.4205,23.6333,21.3698,23.7524,21.2683,23.8571C21.1761,23.9524,21.0655,24,20.9364,24L19.4841,24C19.355,24,19.2397,23.9524,19.1383,23.8571C19.0461,23.7524,19,23.6333,19,23.5L19,14.5Z" fill="#CECECE" transform="translate(24,19) translate(-24,-19)"/>
    <path d="M12.1886,14.1429C12.3029,14.0476,12.44,14,12.6,14L14.4,14C14.56,14,14.6971,14.0524,14.8114,14.1571C14.9371,14.2524,15,14.3667,15,14.5L15,23.5C15,23.6333,14.9371,23.7524,14.8114,23.8571C14.6971,23.9524,14.56,24,14.4,24L12.6,24C12.44,24,12.2971,23.9524,12.1714,23.8571C12.0571,23.7524,12,23.6333,12,23.5L12,14.5C12,14.3667,12.0629,14.2476,12.1886,14.1429Z" fill="#CECECE" transform="translate(13.5,19) translate(-13.5,-19)"/>
    <path d="M0,23.5L0,14.5C0,14.3667,0.0497513,14.2524,0.149254,14.1571C0.258706,14.0524,0.383085,14,0.522388,14L2.08955,14C2.22886,14,2.34826,14.0524,2.44776,14.1571C2.55721,14.2524,2.61194,14.3667,2.61194,14.5L2.61194,21.2571C2.61194,21.3905,2.66169,21.5048,2.76119,21.6C2.8607,21.6952,2.98507,21.7429,3.13433,21.7429L7.46269,21.7429C7.61194,21.7429,7.73632,21.7952,7.83582,21.9C7.94527,21.9952,8,22.1143,8,22.2571L8,23.5C8,23.6333,7.94527,23.7524,7.83582,23.8571C7.72637,23.9524,7.60199,24,7.46269,24L0.522388,24C0.383085,24,0.258706,23.9524,0.149254,23.8571C0.0497513,23.7524,0,23.6333,0,23.5Z" fill="#CECECE" transform="translate(4,19) translate(-4,-19)"/>
    <path d="M54,9.5L54,0.5C54,0.366667,54.0475,0.252381,54.1425,0.157143C54.2469,0.0523811,54.3656,0,54.4986,0L58.4872,0C58.7151,0,58.924,0.0714285,59.114,0.214285C59.3039,0.357143,59.4226,0.538096,59.4701,0.757143L61.151,7.55714C61.1795,7.67143,61.2365,7.73333,61.3219,7.74286C61.4169,7.74286,61.4976,7.74286,61.5641,7.74286C61.7255,7.74286,61.8205,7.68095,61.849,7.55714L63.5299,0.757143C63.5774,0.538096,63.6961,0.357143,63.886,0.214285C64.076,0.0714285,64.2802,0,64.4986,0L68.5014,0C68.6344,0,68.7483,0.0523811,68.8433,0.157143C68.9478,0.252381,69,0.366667,69,0.5L69,9.5C69,9.63333,68.9478,9.75238,68.8433,9.85714C68.7483,9.95238,68.6344,10,68.5014,10L67.0057,10C66.8727,10,66.754,9.95238,66.6496,9.85714C66.5546,9.75238,66.5071,9.63333,66.5071,9.5L66.5071,2.5C66.5071,2.42381,66.4834,2.36667,66.4359,2.32857C66.3979,2.29048,66.3552,2.26667,66.3077,2.25714C66.2602,2.24762,66.2175,2.24286,66.1795,2.24286C66.1605,2.24286,66.132,2.24762,66.094,2.25714C66.056,2.25714,66.018,2.25714,65.9801,2.25714C65.8091,2.25714,65.7094,2.31905,65.6809,2.44286L64,9.24286C63.943,9.4619,63.8243,9.64286,63.6439,9.78571C63.4634,9.92857,63.2593,10,63.0313,10L59.9687,10C59.7407,10,59.5366,9.92857,59.3561,9.78571C59.1757,9.64286,59.057,9.4619,59,9.24286L57.3048,2.44286C57.2858,2.37619,57.2526,2.32857,57.2051,2.3C57.1671,2.27143,57.1292,2.25714,57.0912,2.25714C57.0532,2.24762,57.0247,2.24286,57.0057,2.24286C56.9772,2.24286,56.944,2.24762,56.906,2.25714C56.868,2.25714,56.83,2.25714,56.792,2.25714C56.7066,2.25714,56.6353,2.28095,56.5783,2.32857C56.5214,2.36667,56.4929,2.42381,56.4929,2.5L56.4929,9.5C56.4929,9.63333,56.4406,9.75238,56.3362,9.85714C56.2412,9.95238,56.1273,10,55.9943,10L54.4986,10C54.3656,10,54.2469,9.95238,54.1425,9.85714C54.0475,9.75238,54,9.63333,54,9.5Z" fill="#CECECE" transform="translate(61.5,5) translate(-61.5,-5)"/>
    <path d="M26.1486,0.142857C26.2387,0.047619,26.3468,0,26.473,0L33.2027,0C33.527,0,33.8288,0.0666667,34.1081,0.2C34.3964,0.32381,34.6486,0.5,34.8649,0.728571C35.0811,0.957143,35.2477,1.22381,35.3649,1.52857C35.491,1.83333,35.5541,2.15714,35.5541,2.5L35.5541,3.77143C35.5541,4.66667,35.2072,5.35714,34.5135,5.84286C34.3514,5.95714,34.2703,6.05238,34.2703,6.12857C34.2703,6.21429,34.3108,6.34286,34.3919,6.51429C34.482,6.68571,34.5901,6.88095,34.7162,7.1C34.8423,7.31905,34.982,7.55238,35.1351,7.8C35.2883,8.04762,35.4279,8.28571,35.5541,8.51429C35.6802,8.74286,35.7838,8.95238,35.8649,9.14286C35.955,9.32381,36,9.46667,36,9.57143C36,9.68571,35.955,9.78571,35.8649,9.87143C35.7748,9.95714,35.6667,10,35.5405,10L33.7297,10C33.6487,10,33.5676,9.97619,33.4865,9.92857C33.4144,9.88095,33.3604,9.81905,33.3243,9.74286L31.7027,6.51429C31.6667,6.44762,31.6081,6.39524,31.527,6.35714C31.455,6.30952,31.3784,6.28571,31.2973,6.28571L28.8378,6.28571C28.7027,6.28571,28.5901,6.33333,28.5,6.42857C28.4099,6.52381,28.3649,6.6381,28.3649,6.77143L28.3649,9.5C28.3649,9.63333,28.3153,9.75238,28.2162,9.85714C28.1261,9.95238,28.018,10,27.8919,10L26.473,10C26.3468,10,26.2342,9.95238,26.1351,9.85714C26.045,9.75238,26,9.63333,26,9.5L26,0.5C26,0.366667,26.0495,0.247619,26.1486,0.142857ZM28.5135,3.87143C28.6036,3.97619,28.7117,4.02857,28.8378,4.02857L32.7162,4.02857C32.8423,4.02857,32.955,3.98095,33.0541,3.88571C33.1532,3.78095,33.2027,3.66191,33.2027,3.52857L33.2027,2.75714C33.2027,2.62381,33.1532,2.50952,33.0541,2.41429C32.955,2.30952,32.8423,2.25714,32.7162,2.25714L28.8378,2.25714C28.7117,2.25714,28.5991,2.30952,28.5,2.41429C28.4099,2.50952,28.3649,2.62381,28.3649,2.75714L28.3649,3.52857C28.3649,3.66191,28.4144,3.77619,28.5135,3.87143Z" fill="#CECECE" transform="translate(31,5) translate(-31,-5)"/>
    <path d="M12,7.5L12,2.5C12,2.15714,12.0592,1.83333,12.1776,1.52857C12.3051,1.22381,12.4781,0.957143,12.6967,0.728571C12.9153,0.5,13.1703,0.32381,13.4617,0.2C13.7532,0.0666667,14.0628,0,14.3907,0L19.6093,0C19.9372,0,20.2468,0.0666667,20.5383,0.2C20.8297,0.333333,21.0801,0.514286,21.2896,0.742858C21.5082,0.961905,21.6812,1.22381,21.8087,1.52857C21.9362,1.83333,22,2.15714,22,2.5L22,7.5C22,7.84286,21.9362,8.16667,21.8087,8.47143C21.6812,8.77619,21.5082,9.04286,21.2896,9.27143C21.0801,9.49048,20.8297,9.66667,20.5383,9.8C20.2468,9.93333,19.9372,10,19.6093,10L14.3907,10C14.0628,10,13.7532,9.9381,13.4617,9.81429C13.1703,9.68095,12.9153,9.5,12.6967,9.27143C12.4781,9.04286,12.3051,8.77619,12.1776,8.47143C12.0592,8.16667,12,7.84286,12,7.5ZM14.3907,3.5L14.3907,6.5C14.3907,6.84286,14.5046,7.1381,14.7322,7.38571C14.969,7.62381,15.2514,7.74286,15.5792,7.74286L18.4071,7.74286C18.735,7.74286,19.0173,7.62381,19.2541,7.38571C19.4909,7.1381,19.6093,6.84286,19.6093,6.5L19.6093,3.5C19.6093,3.15714,19.4909,2.86667,19.2541,2.62857C19.0173,2.38095,18.735,2.25714,18.4071,2.25714L15.5792,2.25714C15.2514,2.25714,14.969,2.38095,14.7322,2.62857C14.5046,2.86667,14.3907,3.15714,14.3907,3.5Z" fill="#CECECE" transform="translate(17,5) translate(-17,-5)"/>
    <path d="M0,9.5L0,0.5C0,0.366667,0.0497513,0.252381,0.149254,0.157143C0.258706,0.0523811,0.383085,0,0.522388,0L2.08955,0C2.22886,0,2.34826,0.0523811,2.44776,0.157143C2.55721,0.252381,2.61194,0.366667,2.61194,0.5L2.61194,7.25714C2.61194,7.39048,2.66169,7.50476,2.76119,7.6C2.8607,7.69524,2.98507,7.74286,3.13433,7.74286L7.46269,7.74286C7.61194,7.74286,7.73632,7.79524,7.83582,7.9C7.94527,7.99524,8,8.11429,8,8.25714L8,9.5C8,9.63333,7.94527,9.75238,7.83582,9.85714C7.72637,9.95238,7.60199,10,7.46269,10L0.522388,10C0.383085,10,0.258706,9.95238,0.149254,9.85714C0.0497513,9.75238,0,9.63333,0,9.5Z" fill="#CECECE" transform="translate(4,5) translate(-4,-5)"/>
    <g id="lorem-red" transform="translate(45.1445,1.26429) translate(-6.41885,-1.26429)">
        <rect width="10" height="2" fill="#FF193C" transform="translate(6.2743,1) translate(-5,-1)" style="animation: 3s linear infinite both lorem-a0_f;"/>
        <ellipse rx="6.41885" ry="0.764285" fill="#ffffff" stroke="none" fill-opacity="0" transform="translate(3,4) translate(3.41885,-2.23572)" style="animation: 3s linear infinite both lorem-a1_fo;"/>
    </g>
    <g id="lorem-white" transform="translate(43.2139,5.26429) translate(-5.78615,-1.26429)">
        <rect width="6" height="2" fill="#F2F2F2" transform="translate(5.5723,1) translate(-3,-1)" style="animation: 3s linear infinite both lorem-a2_f;"/>
        <ellipse rx="5.78615" ry="0.764285" fill="#ffffff" stroke="none" fill-opacity="0" transform="translate(2.3246,4) translate(3.46155,-2.23572)" style="animation: 3s linear infinite both lorem-a3_fo;"/>
    </g>
    <g id="lorem-blue" transform="translate(45.1445,9.26429) translate(-6.41885,-1.26429)">
        <rect width="10" height="2" fill="#1F79FF" transform="translate(6.2743,1) translate(-5,-1)" style="animation: 3s linear infinite both lorem-a4_f;"/>
        <ellipse rx="6.41885" ry="0.764285" fill="#ffffff" stroke="none" fill-opacity="0" transform="translate(3,4) translate(3.41885,-2.23572)" style="animation: 3s linear infinite both lorem-a5_fo;"/>
    </g>
</svg>
