<svg width="109" height="26" viewBox="0 0 109 26" fill="none" xmlns="http://www.w3.org/2000/svg">
<path opacity="0.5" d="M63.1727 3.61364V2.36364H71.9V3.61364H68.2409V14H66.8318V3.61364H63.1727ZM77.2747 14V2.36364H81.2065C82.1156 2.36364 82.8618 2.51894 83.4452 2.82955C84.0285 3.13636 84.4603 3.55871 84.7406 4.09659C85.0209 4.63447 85.1611 5.24621 85.1611 5.93182C85.1611 6.61742 85.0209 7.22538 84.7406 7.75568C84.4603 8.28598 84.0304 8.70265 83.4509 9.00568C82.8713 9.30492 82.1308 9.45455 81.2293 9.45455H78.0474V8.18182H81.1838C81.805 8.18182 82.305 8.09091 82.6838 7.90909C83.0664 7.72727 83.3429 7.4697 83.5134 7.13636C83.6876 6.79924 83.7747 6.39773 83.7747 5.93182C83.7747 5.46591 83.6876 5.05871 83.5134 4.71023C83.3391 4.36174 83.0607 4.0928 82.6781 3.90341C82.2956 3.71023 81.7899 3.61364 81.1611 3.61364H78.6838V14H77.2747ZM82.752 8.77273L85.6156 14H83.9793L81.1611 8.77273H82.752ZM95.5273 7.55682V8.80682H90.4364V7.55682H95.5273ZM100.517 14V12.9773L104.358 8.77273C104.809 8.2803 105.18 7.85227 105.472 7.48864C105.763 7.12121 105.979 6.77652 106.119 6.45455C106.263 6.12879 106.335 5.78788 106.335 5.43182C106.335 5.02273 106.237 4.66856 106.04 4.36932C105.847 4.07008 105.581 3.83901 105.244 3.67614C104.907 3.51326 104.528 3.43182 104.108 3.43182C103.661 3.43182 103.271 3.52462 102.938 3.71023C102.608 3.89205 102.352 4.14773 102.17 4.47727C101.992 4.80682 101.903 5.19318 101.903 5.63636H100.562C100.562 4.95455 100.72 4.35606 101.034 3.84091C101.348 3.32576 101.777 2.92424 102.318 2.63636C102.864 2.34848 103.475 2.20455 104.153 2.20455C104.835 2.20455 105.439 2.34848 105.966 2.63636C106.492 2.92424 106.905 3.3125 107.205 3.80114C107.504 4.28977 107.653 4.83333 107.653 5.43182C107.653 5.85985 107.576 6.27841 107.42 6.6875C107.269 7.0928 107.004 7.54545 106.625 8.04545C106.25 8.54167 105.729 9.14773 105.062 9.86364L102.449 12.6591V12.75H107.858V14H100.517Z" fill="white"/>
<path opacity="0.4" d="M1.0733 25V19.1818H4.58466V19.8068H1.77784V21.7727H4.40284V22.3977H1.77784V24.375H4.63012V25H1.0733ZM7.45455 25V19.1818H8.15909V24.375H10.8636V25H7.45455ZM13.5545 25V19.1818H17.0659V19.8068H14.2591V21.7727H16.8841V22.3977H14.2591V24.375H17.1114V25H13.5545ZM24.6176 21H23.9131C23.8714 20.7973 23.7985 20.6193 23.6943 20.4659C23.592 20.3125 23.467 20.1837 23.3193 20.0795C23.1735 19.9735 23.0116 19.8939 22.8335 19.8409C22.6555 19.7879 22.4699 19.7614 22.2767 19.7614C21.9244 19.7614 21.6053 19.8504 21.3193 20.0284C21.0352 20.2064 20.8089 20.4688 20.6403 20.8153C20.4737 21.1619 20.3903 21.5871 20.3903 22.0909C20.3903 22.5947 20.4737 23.0199 20.6403 23.3665C20.8089 23.7131 21.0352 23.9754 21.3193 24.1534C21.6053 24.3314 21.9244 24.4205 22.2767 24.4205C22.4699 24.4205 22.6555 24.3939 22.8335 24.3409C23.0116 24.2879 23.1735 24.2093 23.3193 24.1051C23.467 23.9991 23.592 23.8693 23.6943 23.7159C23.7985 23.5606 23.8714 23.3826 23.9131 23.1818H24.6176C24.5646 23.4792 24.468 23.7453 24.3278 23.9801C24.1877 24.215 24.0134 24.4148 23.8051 24.5795C23.5968 24.7424 23.3629 24.8665 23.1034 24.9517C22.8458 25.0369 22.5703 25.0795 22.2767 25.0795C21.7805 25.0795 21.3392 24.9583 20.9528 24.7159C20.5665 24.4735 20.2625 24.1288 20.0409 23.6818C19.8193 23.2348 19.7085 22.7045 19.7085 22.0909C19.7085 21.4773 19.8193 20.947 20.0409 20.5C20.2625 20.053 20.5665 19.7083 20.9528 19.4659C21.3392 19.2235 21.7805 19.1023 22.2767 19.1023C22.5703 19.1023 22.8458 19.1449 23.1034 19.2301C23.3629 19.3153 23.5968 19.4403 23.8051 19.6051C24.0134 19.768 24.1877 19.9669 24.3278 20.2017C24.468 20.4347 24.5646 20.7008 24.6176 21ZM27.0379 19.8068V19.1818H31.4016V19.8068H29.572V25H28.8675V19.8068H27.0379ZM34.0889 25V19.1818H36.0548C36.5094 19.1818 36.8825 19.2595 37.1741 19.4148C37.4658 19.5682 37.6817 19.7794 37.8219 20.0483C37.962 20.3172 38.0321 20.6231 38.0321 20.9659C38.0321 21.3087 37.962 21.6127 37.8219 21.8778C37.6817 22.143 37.4668 22.3513 37.177 22.5028C36.8872 22.6525 36.517 22.7273 36.0662 22.7273H34.4753V22.0909H36.0435C36.3541 22.0909 36.6041 22.0455 36.7935 21.9545C36.9848 21.8636 37.123 21.7348 37.2082 21.5682C37.2954 21.3996 37.3389 21.1989 37.3389 20.9659C37.3389 20.733 37.2954 20.5294 37.2082 20.3551C37.1211 20.1809 36.9819 20.0464 36.7906 19.9517C36.5993 19.8551 36.3465 19.8068 36.0321 19.8068H34.7935V25H34.0889ZM36.8276 22.3864L38.2594 25H37.4412L36.0321 22.3864H36.8276ZM45.7152 22.0909C45.7152 22.7045 45.6044 23.2348 45.3828 23.6818C45.1612 24.1288 44.8572 24.4735 44.4709 24.7159C44.0845 24.9583 43.6432 25.0795 43.147 25.0795C42.6508 25.0795 42.2095 24.9583 41.8232 24.7159C41.4368 24.4735 41.1328 24.1288 40.9112 23.6818C40.6896 23.2348 40.5788 22.7045 40.5788 22.0909C40.5788 21.4773 40.6896 20.947 40.9112 20.5C41.1328 20.053 41.4368 19.7083 41.8232 19.4659C42.2095 19.2235 42.6508 19.1023 43.147 19.1023C43.6432 19.1023 44.0845 19.2235 44.4709 19.4659C44.8572 19.7083 45.1612 20.053 45.3828 20.5C45.6044 20.947 45.7152 21.4773 45.7152 22.0909ZM45.0334 22.0909C45.0334 21.5871 44.9491 21.1619 44.7805 20.8153C44.6139 20.4688 44.3875 20.2064 44.1016 20.0284C43.8175 19.8504 43.4993 19.7614 43.147 19.7614C42.7947 19.7614 42.4756 19.8504 42.1896 20.0284C41.9055 20.2064 41.6792 20.4688 41.5107 20.8153C41.344 21.1619 41.2607 21.5871 41.2607 22.0909C41.2607 22.5947 41.344 23.0199 41.5107 23.3665C41.6792 23.7131 41.9055 23.9754 42.1896 24.1534C42.4756 24.3314 42.7947 24.4205 43.147 24.4205C43.4993 24.4205 43.8175 24.3314 44.1016 24.1534C44.3875 23.9754 44.6139 23.7131 44.7805 23.3665C44.9491 23.0199 45.0334 22.5947 45.0334 22.0909ZM53.1135 19.1818V25H52.4317L49.2612 20.4318H49.2044V25H48.4999V19.1818H49.1817L52.3635 23.7614H52.4203V19.1818H53.1135ZM56.8278 19.1818V25H56.1233V19.1818H56.8278ZM64.5223 21H63.8178C63.7761 20.7973 63.7032 20.6193 63.599 20.4659C63.4967 20.3125 63.3717 20.1837 63.224 20.0795C63.0782 19.9735 62.9162 19.8939 62.7382 19.8409C62.5602 19.7879 62.3746 19.7614 62.1814 19.7614C61.8291 19.7614 61.51 19.8504 61.224 20.0284C60.9399 20.2064 60.7136 20.4688 60.545 20.8153C60.3784 21.1619 60.295 21.5871 60.295 22.0909C60.295 22.5947 60.3784 23.0199 60.545 23.3665C60.7136 23.7131 60.9399 23.9754 61.224 24.1534C61.51 24.3314 61.8291 24.4205 62.1814 24.4205C62.3746 24.4205 62.5602 24.3939 62.7382 24.3409C62.9162 24.2879 63.0782 24.2093 63.224 24.1051C63.3717 23.9991 63.4967 23.8693 63.599 23.7159C63.7032 23.5606 63.7761 23.3826 63.8178 23.1818H64.5223C64.4693 23.4792 64.3727 23.7453 64.2325 23.9801C64.0924 24.215 63.9181 24.4148 63.7098 24.5795C63.5015 24.7424 63.2676 24.8665 63.0081 24.9517C62.7505 25.0369 62.475 25.0795 62.1814 25.0795C61.6852 25.0795 61.2439 24.9583 60.8575 24.7159C60.4712 24.4735 60.1672 24.1288 59.9456 23.6818C59.724 23.2348 59.6132 22.7045 59.6132 22.0909C59.6132 21.4773 59.724 20.947 59.9456 20.5C60.1672 20.053 60.4712 19.7083 60.8575 19.4659C61.2439 19.2235 61.6852 19.1023 62.1814 19.1023C62.475 19.1023 62.7505 19.1449 63.0081 19.2301C63.2676 19.3153 63.5015 19.4403 63.7098 19.6051C63.9181 19.768 64.0924 19.9669 64.2325 20.2017C64.3727 20.4347 64.4693 20.7008 64.5223 21ZM71.1108 25V19.1818H73.0767C73.5331 19.1818 73.9063 19.2642 74.196 19.429C74.4877 19.5919 74.7036 19.8125 74.8438 20.0909C74.9839 20.3693 75.054 20.6799 75.054 21.0227C75.054 21.3655 74.9839 21.6771 74.8438 21.9574C74.7055 22.2377 74.4915 22.4612 74.2017 22.6278C73.9119 22.7926 73.5407 22.875 73.0881 22.875H71.679V22.25H73.0653C73.3778 22.25 73.6288 22.196 73.8182 22.0881C74.0076 21.9801 74.1449 21.8343 74.2301 21.6506C74.3172 21.465 74.3608 21.2557 74.3608 21.0227C74.3608 20.7898 74.3172 20.5814 74.2301 20.3977C74.1449 20.214 74.0066 20.0701 73.8153 19.9659C73.6241 19.8598 73.3703 19.8068 73.054 19.8068H71.8153V25H71.1108ZM77.7889 25V19.1818H78.4935V24.375H81.198V25H77.7889ZM87.7071 19.1818H88.4117V23.0341C88.4117 23.4318 88.3179 23.7869 88.1304 24.0994C87.9448 24.41 87.6825 24.6553 87.3435 24.8352C87.0045 25.0133 86.6067 25.1023 86.1503 25.1023C85.6938 25.1023 85.2961 25.0133 84.9571 24.8352C84.6181 24.6553 84.3548 24.41 84.1673 24.0994C83.9817 23.7869 83.8889 23.4318 83.8889 23.0341V19.1818H84.5935V22.9773C84.5935 23.2614 84.656 23.5142 84.781 23.7358C84.906 23.9555 85.084 24.1288 85.3151 24.2557C85.548 24.3807 85.8264 24.4432 86.1503 24.4432C86.4742 24.4432 86.7526 24.3807 86.9855 24.2557C87.2185 24.1288 87.3965 23.9555 87.5196 23.7358C87.6446 23.5142 87.7071 23.2614 87.7071 22.9773V19.1818ZM95.3959 21C95.3334 20.8087 95.251 20.6373 95.1487 20.4858C95.0483 20.3324 94.9281 20.2017 94.7879 20.0938C94.6497 19.9858 94.4925 19.9034 94.3163 19.8466C94.1402 19.7898 93.947 19.7614 93.7368 19.7614C93.3921 19.7614 93.0786 19.8504 92.7965 20.0284C92.5143 20.2064 92.2898 20.4688 92.1232 20.8153C91.9565 21.1619 91.8732 21.5871 91.8732 22.0909C91.8732 22.5947 91.9574 23.0199 92.126 23.3665C92.2946 23.7131 92.5228 23.9754 92.8107 24.1534C93.0985 24.3314 93.4224 24.4205 93.7822 24.4205C94.1156 24.4205 94.4091 24.3494 94.6629 24.2074C94.9186 24.0634 95.1175 23.8608 95.2595 23.5994C95.4035 23.3362 95.4754 23.0265 95.4754 22.6705L95.6913 22.7159H93.9413V22.0909H96.1572V22.7159C96.1572 23.1951 96.055 23.6117 95.8504 23.9659C95.6478 24.3201 95.3675 24.5947 95.0095 24.7898C94.6535 24.983 94.2444 25.0795 93.7822 25.0795C93.2671 25.0795 92.8144 24.9583 92.4243 24.7159C92.036 24.4735 91.733 24.1288 91.5152 23.6818C91.2993 23.2348 91.1913 22.7045 91.1913 22.0909C91.1913 21.6307 91.2529 21.2169 91.376 20.8494C91.501 20.4801 91.6771 20.1657 91.9044 19.9062C92.1317 19.6468 92.4006 19.4479 92.7112 19.3097C93.0218 19.1714 93.3637 19.1023 93.7368 19.1023C94.0436 19.1023 94.3296 19.1487 94.5947 19.2415C94.8618 19.3324 95.0995 19.4621 95.3078 19.6307C95.518 19.7973 95.6932 19.9972 95.8334 20.2301C95.9735 20.4612 96.0701 20.7178 96.1232 21H95.3959ZM99.6685 19.1818V25H98.9639V19.1818H99.6685ZM107.295 19.1818V25H106.613L103.442 20.4318H103.386V25H102.681V19.1818H103.363L106.545 23.7614H106.602V19.1818H107.295Z" fill="white"/>
</svg>
